<svg xmlns="http://www.w3.org/2000/svg" viewBox="0 0 128 128" width="128" height="128">
  <!-- Background -->
  <rect width="128" height="128" rx="24" fill="white"/>
  
  <!-- Book shape -->
  <path d="M32 24 H96 C100 24 100 40 100 40 V104 C100 108 96 108 96 108 H32 C28 108 28 104 28 104 V28 C28 24 32 24 32 24 Z" fill="#3b82f6"/>
  
  <!-- Page lines -->
  <rect x="40" y="40" width="40" height="4" rx="2" fill="white"/>
  <rect x="40" y="50" width="32" height="4" rx="2" fill="white"/>
  <rect x="40" y="60" width="28" height="4" rx="2" fill="white"/>
  <rect x="40" y="70" width="36" height="4" rx="2" fill="white"/>
  <rect x="40" y="80" width="40" height="4" rx="2" fill="white"/>
  <rect x="40" y="90" width="32" height="4" rx="2" fill="white"/>
  
  <!-- Bookmark -->
  <path d="M72 24 L88 24 L88 56 L72 40 Z" fill="#10b981"/>
</svg>