<svg xmlns="http://www.w3.org/2000/svg" viewBox="0 0 128 128" width="128" height="128">
  <!-- Background -->
  <rect width="128" height="128" rx="24" fill="white"/>
  
  <!-- Cloud 1 -->
  <path d="M32 48 Q32 36 40 32 Q36 20 48 20 Q48 12 60 12 Q68 4 80 12 Q92 12 92 24 Q96 24 96 32 Q104 36 96 48 L32 48 Z" fill="#3b82f6"/>
  
  <!-- Cloud 2 -->
  <path d="M40 80 Q40 68 48 64 Q44 52 56 52 Q56 44 68 44 Q76 36 88 44 Q100 44 100 56 Q104 56 104 64 Q112 68 104 80 L40 80 Z" fill="#8b5cf6"/>
  
  <!-- Connection -->
  <line x1="72" y1="52" x2="88" y2="76" stroke="#10b981" stroke-width="4"/>
  
  <!-- Sync symbol -->
  <path d="M60 68 L68 76 L60 84" stroke="#f97316" stroke-width="4" fill="none" stroke-linecap="round" stroke-linejoin="round"/>
</svg>